<svg width="68" height="25" viewBox="0 0 68 25" fill="none" xmlns="http://www.w3.org/2000/svg">
<path fill-rule="evenodd" clip-rule="evenodd" d="M64.0706 9.90365C63.917 12.1479 62.2812 13.4393 60.719 13.6389C59.1656 13.8374 57.6827 12.9586 57.8004 10.8655C58.048 6.45676 64.352 5.78984 64.0706 9.90365ZM61.2896 4.29147C57.9164 4.60952 55.2651 7.06442 54.7432 10.1804C53.327 18.6379 65.7354 18.4713 67.1487 10.6214C67.8661 6.63623 65.2484 3.91826 61.2896 4.29147Z" fill="white"/>
<path fill-rule="evenodd" clip-rule="evenodd" d="M9.79223 0.155062C9.94097 0.469419 10.1423 0.508807 10.0779 1.0393L9.56457 3.9286C9.43769 4.62963 8.30912 11.1693 8.17086 11.6451C7.3622 14.4295 3.03158 14.4659 3.45909 11.3717C3.63247 10.1186 3.92162 8.75328 4.14677 7.50477L5.18138 1.70751C5.28919 1.09771 5.6653 0.152283 4.82067 0.152283L1.62733 0.153566C1.90173 0.610781 1.99321 0.62585 1.868 1.30567L0.313979 10.0168C-0.0264152 11.902 -0.324085 13.3608 0.747476 14.8302C2.1862 16.8029 5.19706 17.0585 7.5643 16.1326C8.12852 15.9119 8.65919 15.6168 9.13614 15.2642C9.87766 14.7158 10.5083 14.0407 11.0022 13.107C11.4164 12.3237 11.5587 11.5824 11.7299 10.6328L13.4358 1.06874C13.528 0.540181 13.579 0.152283 12.9417 0.152283L9.79223 0.155062Z" fill="white"/>
<path fill-rule="evenodd" clip-rule="evenodd" d="M30.6074 2.40772L31.3096 8.83783L27.7148 8.84116L30.6074 2.40772ZM24.4802 16.2164C24.4397 15.9501 24.3292 15.8739 24.3984 15.5367L26.2231 11.9024L31.735 11.9026L32.2756 15.8133C32.3484 16.1801 32.6092 16.2185 32.9836 16.2168L36.3601 16.215C36.227 15.8943 35.8867 15.9675 35.7718 15.3055L33.3974 1.08707C33.1852 -0.185014 33.3386 0.0108584 31.4687 0.0108584L28.4166 0.0150256C28.4183 0.712529 28.7543 0.246762 28.1979 1.30239C25.6054 6.30344 22.9719 11.2544 20.3917 16.2164H24.4802Z" fill="white"/>
<path fill-rule="evenodd" clip-rule="evenodd" d="M20.052 13.5988L15.1265 13.6424L21.3034 6.99284C21.4374 6.86548 21.543 6.76789 21.5976 6.55486C21.6946 6.17669 21.7527 5.67454 21.8257 5.27873C21.9323 4.69987 21.63 4.59549 21.0899 4.59731L13.5648 4.60308L13.1059 7.27022L18.1402 7.23029L11.9365 13.7074C11.761 13.8858 11.698 14.1335 11.6475 14.4104C11.6005 14.6685 11.3862 15.593 11.4268 15.7932C11.525 16.2766 12.235 16.2163 12.7741 16.2163H19.5527L20.052 13.5988Z" fill="white"/>
<path fill-rule="evenodd" clip-rule="evenodd" d="M47.9328 4.64559L44.3197 4.59835C44.3805 4.97289 44.6877 4.96119 44.5713 5.65356L43.1406 13.5703L41.6541 13.5558C39.5246 13.5403 39.1524 13.4017 39.6017 10.9345L40.5899 5.50904C40.7705 4.47255 40.433 4.59756 39.3866 4.59756C38.6376 4.59756 37.8888 4.59756 37.1397 4.59756C37.2067 4.79663 37.3345 4.89053 37.3917 5.09934C37.4583 5.34257 37.4037 5.5674 37.36 5.80822L36.2865 12.0185C35.7353 15.208 37.9371 16.248 40.1709 16.248L45.963 16.2256L47.9328 4.64559Z" fill="white"/>
<path fill-rule="evenodd" clip-rule="evenodd" d="M54.313 1.23379C53.1704 1.21658 52.8939 1.41523 52.6195 2.26398C51.8388 4.53477 50.6443 4.69142 48.6584 4.65022L48.2475 7.09593C48.9905 7.09855 49.7205 7.1087 49.8167 7.13698C50.2816 7.27353 50.0467 7.95676 49.971 8.38852L49.1838 12.8469C49.101 13.3153 49.1097 13.792 49.2042 14.2242C49.4073 15.1528 50.0011 15.71 50.7709 16.0217C51.5127 16.3219 52.9207 16.4455 53.7701 16.2034L54.2243 13.5473C53.8455 13.5926 53.4292 13.602 53.0845 13.497C52.3121 13.2616 52.2519 12.7252 52.3725 12.0637L53.2753 7.11116C55.5596 7.11116 55.341 7.36422 55.5896 5.94891C55.8618 4.3986 55.8863 4.59763 53.7238 4.59634L53.8631 3.80152L54.313 1.23379Z" fill="white"/>
<path d="M6.27667 24.6584H7.43233L7.15125 19.9827H5.58947L5.03508 21.5366C4.85546 22.057 4.67588 22.6744 4.53531 23.2155H4.50407C4.38694 22.6674 4.23075 22.0847 4.05899 21.5436L3.54355 19.9827H1.95844L1.62262 24.6584H2.72371L2.82521 22.8825C2.85641 22.2998 2.88766 21.5782 2.91109 20.9469H2.92666C3.05947 21.5574 3.23128 22.2234 3.40309 22.7784L3.9653 24.5821H4.89451L5.53484 22.7575C5.73785 22.2095 5.95653 21.5436 6.12829 20.9469H6.14392C6.14392 21.6268 6.16731 22.3067 6.19074 22.8686L6.27667 24.6584ZM17.5115 19.8994C15.9654 19.8994 14.9503 20.9469 14.9503 22.3483C14.9503 23.6872 15.8716 24.7347 17.4255 24.7347C18.9717 24.7347 20.0103 23.8121 20.0103 22.272C20.0103 20.9747 19.1279 19.8994 17.5115 19.8994ZM17.4881 20.7389C18.308 20.7389 18.7531 21.4604 18.7531 22.3067C18.7531 23.2155 18.2923 23.8953 17.4881 23.8953C16.6916 23.8953 16.2074 23.2501 16.2074 22.3275C16.2074 21.4188 16.6759 20.7389 17.4881 20.7389ZM28.4417 24.6584H29.6286V20.8707H31.0655V19.9827H27.0205V20.8707H28.4417V24.6584ZM40.637 19.8994C39.0908 19.8994 38.0757 20.9469 38.0757 22.3483C38.0757 23.6872 38.9971 24.7347 40.5511 24.7347C42.0972 24.7347 43.1358 23.8121 43.1358 22.272C43.1358 20.9747 42.2533 19.8994 40.637 19.8994ZM40.6136 20.7389C41.4334 20.7389 41.8786 21.4604 41.8786 22.3067C41.8786 23.2155 41.4178 23.8953 40.6136 23.8953C39.8171 23.8953 39.333 23.2501 39.333 22.3275C39.333 21.4188 39.8015 20.7389 40.6136 20.7389ZM50.7629 24.6584H51.942V22.8131H52.2934C52.7853 22.82 53.0119 22.9727 53.1602 23.5646C53.3085 24.1428 53.4413 24.5185 53.5195 24.6584H54.7376C54.636 24.4769 54.4799 23.8642 54.3159 23.3276C54.1831 22.8964 53.9802 22.5912 53.6131 22.4593V22.4385C54.066 22.2929 54.5423 21.8847 54.5423 21.2973C54.5423 20.8695 54.3705 20.5377 54.0504 20.3157C53.6756 20.0521 53.129 19.948 52.3481 19.948C51.7078 19.948 51.1455 19.9896 50.7629 20.0451V24.6584ZM51.942 20.7724C52.0279 20.7528 52.1919 20.7389 52.4809 20.7389C53.0275 20.7389 53.3554 20.9597 53.3554 21.3805C53.3554 21.7875 53.0041 22.05 52.4106 22.05H51.942V20.7724ZM62.0368 24.4365C62.3334 24.5821 62.9269 24.7278 63.5283 24.7278C64.9728 24.7278 65.6444 24.0618 65.6444 23.2779C65.6444 22.6189 65.215 22.1887 64.2857 21.8835C63.5985 21.6546 63.3096 21.5227 63.3096 21.2244C63.3096 20.9886 63.5595 20.7736 64.0748 20.7736C64.5824 20.7736 64.965 20.9053 65.1681 20.9956L65.4335 20.1493C65.1212 20.0174 64.6917 19.9133 64.0905 19.9133C62.8566 19.9133 62.0992 20.5169 62.0992 21.3147C62.0992 21.9946 62.6771 22.4246 63.5517 22.7021C64.1841 22.8964 64.434 23.0628 64.434 23.3542C64.434 23.6595 64.1452 23.8606 63.5985 23.8606C63.091 23.8606 62.5912 23.715 62.2788 23.5693L62.0368 24.4365Z" fill="white"/>
</svg>
